<?xml version="1.0" standalone="no"?>
<!DOCTYPE svg PUBLIC "-//W3C//DTD SVG 1.1//EN" "http://www.w3.org/Graphics/SVG/1.1/DTD/svg11.dtd">

<svg width="800" height="600" version="1.1" xmlns="http://www.w3.org/2000/svg">
	<ellipse stroke="black" stroke-width="1" fill="none" cx="191.5" cy="291.5" rx="30" ry="30"/>
	<text x="174.5" y="297.5" font-family="Times New Roman" font-size="20">start</text>
	<ellipse stroke="black" stroke-width="1" fill="none" cx="191.5" cy="291.5" rx="24" ry="24"/>
	<ellipse stroke="black" stroke-width="1" fill="none" cx="334.5" cy="291.5" rx="30" ry="30"/>
	<text x="257.5" y="297.5" font-family="Times New Roman" font-size="20">1 (check sequence)</text>
	<ellipse stroke="black" stroke-width="1" fill="none" cx="439.5" cy="162.5" rx="30" ry="30"/>
	<text x="361.5" y="168.5" font-family="Times New Roman" font-size="20">2 (cursor is moved)</text>
	<ellipse stroke="black" stroke-width="1" fill="none" cx="439.5" cy="423.5" rx="30" ry="30"/>
	<text x="370.5" y="429.5" font-family="Times New Roman" font-size="20">3 (font is bolded)</text>
	<path stroke="black" stroke-width="1" fill="none" d="M 164.703,304.725 A 22.5,22.5 0 1 1 164.703,278.275"/>
	<text x="15.5" y="297.5" font-family="Times New Roman" font-size="20">regular chars</text>
	<polygon fill="black" stroke-width="1" points="164.703,278.275 161.17,269.527 155.292,277.618"/>
	<path stroke="black" stroke-width="1" fill="none" d="M 308.63,306.529 A 117.545,117.545 0 0 1 217.37,306.529"/>
	<polygon fill="black" stroke-width="1" points="308.63,306.529 299.316,305.026 303.198,314.242"/>
	<text x="241.5" y="336.5" font-family="Times New Roman" font-size="20">ESC[</text>
	<polygon stroke="black" stroke-width="1" points="353.438,268.233 420.562,185.767"/>
	<polygon fill="black" stroke-width="1" points="420.562,185.767 411.634,188.815 419.389,195.128"/>
	<text x="278.5" y="218.5" font-family="Times New Roman" font-size="20">row;columnf</text>
	<polygon stroke="black" stroke-width="1" points="353.176,314.978 420.824,400.022"/>
	<polygon fill="black" stroke-width="1" points="420.824,400.022 419.757,390.649 411.931,396.874"/>
	<text x="329.5" y="377.5" font-family="Times New Roman" font-size="20">digitm</text>
	<path stroke="black" stroke-width="1" fill="none" d="M 189.141,261.646 A 146.226,146.226 0 0 1 416.41,143.429"/>
	<polygon fill="black" stroke-width="1" points="189.141,261.646 194.329,253.767 184.332,253.529"/>
	<text x="254.5" y="126.5" font-family="Times New Roman" font-size="20">&#949;</text>
	<path stroke="black" stroke-width="1" fill="none" d="M 417.996,444.34 A 143.548,143.548 0 0 1 186.222,320.977"/>
	<polygon fill="black" stroke-width="1" points="186.222,320.977 180.654,328.592 190.628,329.319"/>
	<text x="248.5" y="479.5" font-family="Times New Roman" font-size="20">&#949;</text>
</svg>
